<?xml version="1.0" encoding="utf-8"?>
<!-- Generator: Adobe Illustrator 16.0.0, SVG Export Plug-In . SVG Version: 6.00 Build 0)  -->
<!DOCTYPE svg PUBLIC "-//W3C//DTD SVG 1.1//EN" "http://www.w3.org/Graphics/SVG/1.1/DTD/svg11.dtd">
<svg version="1.1" id="Layer_1" xmlns="http://www.w3.org/2000/svg" xmlns:xlink="http://www.w3.org/1999/xlink" x="0px" y="0px"
	 width="144px" height="144px" viewBox="0 0 144 144" enable-background="new 0 0 144 144" xml:space="preserve">
<ellipse opacity="0.8" fill="#939393" cx="72.897" cy="93.449" rx="7.652" ry="7.497"/>
<ellipse opacity="0.6" fill="#939393" cx="72.897" cy="77.529" rx="5.465" ry="5.354"/>
<ellipse opacity="0.4" fill="#939393" cx="72.901" cy="65.228" rx="4.673" ry="4.654"/>
<ellipse opacity="0.6" fill="#939393" cx="60.572" cy="82.625" rx="4.673" ry="4.655"/>
<path opacity="0.6" fill="#939393" d="M89.575,82.344c0,2.571-2.088,4.652-4.671,4.652c-2.582,0-4.673-2.081-4.673-4.652
	c0-2.57,2.091-4.653,4.673-4.653C87.487,77.69,89.575,79.773,89.575,82.344z"/>
<ellipse opacity="0.6" fill="#939393" cx="51.774" cy="75.05" rx="3.912" ry="3.897"/>
<ellipse opacity="0.8" fill="#939393" cx="58.209" cy="94.532" rx="3.913" ry="3.896"/>
<path opacity="0.8" fill="#939393" d="M91.186,94.441c0,2.155-1.751,3.897-3.913,3.897c-2.161,0-3.913-1.742-3.913-3.897
	c0-2.152,1.752-3.895,3.913-3.895C89.435,90.547,91.186,92.289,91.186,94.441z"/>
<ellipse opacity="0.2" fill="#939393" cx="72.88" cy="54.274" rx="4.18" ry="4.155"/>
<ellipse opacity="0.6" fill="#939393" cx="92.727" cy="75.05" rx="4.18" ry="4.155"/>
<ellipse opacity="0.8" fill="#939393" cx="48.442" cy="93.956" rx="3.536" ry="3.521"/>
<ellipse opacity="0.4" fill="#939393" cx="44.325" cy="68.375" rx="3.536" ry="3.522"/>
<ellipse opacity="0.2" fill="#939393" cx="72.88" cy="43.98" rx="3.537" ry="3.522"/>
<ellipse opacity="0.4" fill="#939393" cx="100.676" cy="68.387" rx="3.537" ry="3.523"/>
<path opacity="0.8" fill="#939393" d="M100.444,93.972c0,1.947-1.583,3.521-3.537,3.521c-1.953,0-3.537-1.574-3.537-3.521
	c0-1.948,1.584-3.523,3.537-3.523C98.861,90.448,100.444,92.023,100.444,93.972z"/>
<path opacity="0.8" fill="#939393" d="M85.67,103.775c0,1.947-1.583,3.522-3.537,3.522s-3.537-1.575-3.537-3.522
	c0-1.949,1.583-3.523,3.537-3.523S85.67,101.826,85.67,103.775z"/>
<ellipse opacity="0.8" fill="#939393" cx="115.356" cy="92.888" rx="2.575" ry="2.714"/>
<path opacity="0.8" fill="#939393" d="M109.382,93.48c0,1.679-1.407,3.034-3.145,3.034c-1.739,0-3.147-1.355-3.147-3.034
	c0-1.676,1.408-3.031,3.147-3.031C107.975,90.449,109.382,91.805,109.382,93.48z"/>
<ellipse fill="#939393" cx="88.533" cy="109.84" rx="3.146" ry="3.033"/>
<ellipse fill="#939393" cx="95.157" cy="115.588" rx="2.575" ry="2.714"/>
<path opacity="0.8" fill="#939393" d="M75.759,106.971c0,1.588-1.289,2.87-2.881,2.87s-2.884-1.282-2.884-2.87
	c0-1.585,1.292-2.867,2.884-2.867S75.759,105.386,75.759,106.971z"/>
<path opacity="0.8" fill="#939393" d="M66.818,103.775c0,1.947-1.582,3.522-3.536,3.522s-3.537-1.575-3.537-3.522
	c0-1.949,1.583-3.523,3.537-3.523S66.818,101.826,66.818,103.775z"/>
<ellipse fill="#939393" cx="56.912" cy="109.84" rx="3.146" ry="3.033"/>
<circle fill="#939393" cx="51.031" cy="115.588" r="2.325"/>
<ellipse fill="#939393" cx="72.897" cy="113.797" rx="2.325" ry="2.319"/>
<path fill="#939393" d="M74.875,120.271c0,1.186-0.959,2.143-2.15,2.143c-1.188,0-2.152-0.957-2.152-2.143
	c0-1.184,0.965-2.141,2.152-2.141C73.916,118.13,74.875,119.087,74.875,120.271z"/>
<path opacity="0.8" fill="#939393" d="M42.392,93.449c0,1.679-1.409,3.034-3.145,3.034c-1.74,0-3.148-1.355-3.148-3.034
	c0-1.675,1.408-3.03,3.148-3.03C40.983,90.419,42.392,91.774,42.392,93.449z"/>
<circle opacity="0.8" fill="#939393" cx="29.966" cy="92.956" r="2.325"/>
<path opacity="0.4" fill="#939393" d="M40.569,62.455c0,1.679-1.408,3.034-3.146,3.034c-1.739,0-3.147-1.355-3.147-3.034
	c0-1.675,1.409-3.031,3.147-3.031C39.161,59.424,40.569,60.78,40.569,62.455z"/>
<circle opacity="0.2" fill="#939393" cx="30.28" cy="56.341" r="2.325"/>
<ellipse opacity="0.1" fill="#939393" cx="72.88" cy="34.302" rx="3.146" ry="3.034"/>
<circle opacity="0.1" fill="#939393" cx="72.88" cy="25.512" r="2.325"/>
<ellipse opacity="0.4" fill="#939393" cx="107.614" cy="62.511" rx="3.147" ry="3.033"/>
<ellipse opacity="0.2" fill="#939393" cx="114.531" cy="56.356" rx="2.326" ry="2.32"/>
</svg>
